<mxfile host="app.diagrams.net" agent="Mozilla/5.0 (Windows NT 10.0; Win64; x64) AppleWebKit/537.36 (KHTML, like Gecko) Chrome/132.0.0.0 Safari/537.36" version="26.0.8">
  <diagram name="Page-1" id="x-shzUI2IuOlVetlsXgw">
    <mxGraphModel dx="3930" dy="2143" grid="1" gridSize="10" guides="1" tooltips="1" connect="1" arrows="1" fold="1" page="1" pageScale="1" pageWidth="850" pageHeight="1100" math="0" shadow="0">
      <root>
        <mxCell id="0" />
        <mxCell id="1" parent="0" />
        <mxCell id="kn3HW8DWErgAXLe95bQE-151" style="edgeStyle=orthogonalEdgeStyle;rounded=0;orthogonalLoop=1;jettySize=auto;html=1;" edge="1" parent="1" source="kn3HW8DWErgAXLe95bQE-148" target="kn3HW8DWErgAXLe95bQE-147">
          <mxGeometry relative="1" as="geometry" />
        </mxCell>
        <mxCell id="kn3HW8DWErgAXLe95bQE-152" value="&lt;span style=&quot;font-size: 18px;&quot;&gt;Синхронно&lt;/span&gt;" style="edgeLabel;html=1;align=center;verticalAlign=middle;resizable=0;points=[];" vertex="1" connectable="0" parent="kn3HW8DWErgAXLe95bQE-151">
          <mxGeometry x="-0.1177" y="-4" relative="1" as="geometry">
            <mxPoint as="offset" />
          </mxGeometry>
        </mxCell>
        <mxCell id="kn3HW8DWErgAXLe95bQE-155" style="edgeStyle=orthogonalEdgeStyle;rounded=0;orthogonalLoop=1;jettySize=auto;html=1;exitX=1;exitY=0.5;exitDx=0;exitDy=0;entryX=0;entryY=0.5;entryDx=0;entryDy=0;" edge="1" parent="1" source="kn3HW8DWErgAXLe95bQE-148" target="kn3HW8DWErgAXLe95bQE-135">
          <mxGeometry relative="1" as="geometry" />
        </mxCell>
        <mxCell id="kn3HW8DWErgAXLe95bQE-156" value="&lt;span style=&quot;font-size: 18px;&quot;&gt;Асинхронно&lt;/span&gt;" style="edgeLabel;html=1;align=center;verticalAlign=middle;resizable=0;points=[];" vertex="1" connectable="0" parent="kn3HW8DWErgAXLe95bQE-155">
          <mxGeometry x="-0.0431" y="5" relative="1" as="geometry">
            <mxPoint y="1" as="offset" />
          </mxGeometry>
        </mxCell>
        <mxCell id="kn3HW8DWErgAXLe95bQE-148" value="" style="rounded=0;whiteSpace=wrap;html=1;fillColor=#d5e8d4;strokeColor=#82b366;" vertex="1" parent="1">
          <mxGeometry x="2227.5" y="390" width="390" height="310" as="geometry" />
        </mxCell>
        <mxCell id="kn3HW8DWErgAXLe95bQE-124" value="" style="group" vertex="1" connectable="0" parent="1">
          <mxGeometry x="2220" y="420" width="465" height="290" as="geometry" />
        </mxCell>
        <mxCell id="kn3HW8DWErgAXLe95bQE-125" value="" style="rounded=1;whiteSpace=wrap;html=1;fillColor=#dae8fc;strokeColor=#6c8ebf;" vertex="1" parent="kn3HW8DWErgAXLe95bQE-124">
          <mxGeometry x="50" width="120" height="240" as="geometry" />
        </mxCell>
        <mxCell id="kn3HW8DWErgAXLe95bQE-126" value="Обработка&amp;nbsp;&lt;div&gt;заявок&lt;/div&gt;" style="text;html=1;align=center;verticalAlign=middle;whiteSpace=wrap;rounded=0;fontSize=18;" vertex="1" parent="kn3HW8DWErgAXLe95bQE-124">
          <mxGeometry y="40" width="220" height="30" as="geometry" />
        </mxCell>
        <mxCell id="kn3HW8DWErgAXLe95bQE-100" value="" style="group" vertex="1" connectable="0" parent="kn3HW8DWErgAXLe95bQE-124">
          <mxGeometry x="190" width="220" height="240" as="geometry" />
        </mxCell>
        <mxCell id="kn3HW8DWErgAXLe95bQE-101" value="" style="rounded=1;whiteSpace=wrap;html=1;fillColor=#dae8fc;strokeColor=#6c8ebf;" vertex="1" parent="kn3HW8DWErgAXLe95bQE-100">
          <mxGeometry x="50" width="120" height="240" as="geometry" />
        </mxCell>
        <mxCell id="kn3HW8DWErgAXLe95bQE-102" value="Оценка&amp;nbsp;&lt;div&gt;стоимости&lt;/div&gt;" style="text;html=1;align=center;verticalAlign=middle;whiteSpace=wrap;rounded=0;fontSize=18;" vertex="1" parent="kn3HW8DWErgAXLe95bQE-100">
          <mxGeometry y="40" width="220" height="30" as="geometry" />
        </mxCell>
        <mxCell id="kn3HW8DWErgAXLe95bQE-127" value="&lt;font style=&quot;font-size: 18px;&quot;&gt;Жизненный цикл заявки&lt;/font&gt;" style="rounded=1;whiteSpace=wrap;html=1;" vertex="1" parent="kn3HW8DWErgAXLe95bQE-124">
          <mxGeometry x="50" y="100" width="310" height="110" as="geometry" />
        </mxCell>
        <mxCell id="kn3HW8DWErgAXLe95bQE-135" value="" style="rounded=0;whiteSpace=wrap;html=1;fillColor=#d5e8d4;strokeColor=#82b366;" vertex="1" parent="1">
          <mxGeometry x="2830" y="400" width="280" height="310" as="geometry" />
        </mxCell>
        <mxCell id="kn3HW8DWErgAXLe95bQE-42" style="edgeStyle=orthogonalEdgeStyle;rounded=0;orthogonalLoop=1;jettySize=auto;html=1;entryX=0.25;entryY=1;entryDx=0;entryDy=0;" edge="1" parent="1" source="kn3HW8DWErgAXLe95bQE-39" target="kn3HW8DWErgAXLe95bQE-38">
          <mxGeometry relative="1" as="geometry" />
        </mxCell>
        <mxCell id="kn3HW8DWErgAXLe95bQE-45" value="&lt;span style=&quot;font-size: 18px;&quot;&gt;Асинхронно&lt;/span&gt;" style="edgeLabel;html=1;align=center;verticalAlign=middle;resizable=0;points=[];" vertex="1" connectable="0" parent="kn3HW8DWErgAXLe95bQE-42">
          <mxGeometry x="-0.0697" relative="1" as="geometry">
            <mxPoint as="offset" />
          </mxGeometry>
        </mxCell>
        <mxCell id="kn3HW8DWErgAXLe95bQE-39" value="" style="rounded=0;whiteSpace=wrap;html=1;fillColor=#d5e8d4;strokeColor=#82b366;" vertex="1" parent="1">
          <mxGeometry x="68" y="760" width="280" height="310" as="geometry" />
        </mxCell>
        <mxCell id="kn3HW8DWErgAXLe95bQE-38" value="" style="rounded=0;whiteSpace=wrap;html=1;fillColor=#d5e8d4;strokeColor=#82b366;" vertex="1" parent="1">
          <mxGeometry y="40" width="830" height="630" as="geometry" />
        </mxCell>
        <mxCell id="kn3HW8DWErgAXLe95bQE-31" value="" style="group" vertex="1" connectable="0" parent="1">
          <mxGeometry x="165" y="90" width="315" height="240" as="geometry" />
        </mxCell>
        <mxCell id="kn3HW8DWErgAXLe95bQE-32" value="" style="rounded=1;whiteSpace=wrap;html=1;fillColor=#dae8fc;strokeColor=#6c8ebf;" vertex="1" parent="kn3HW8DWErgAXLe95bQE-31">
          <mxGeometry x="50" width="120" height="240" as="geometry" />
        </mxCell>
        <mxCell id="kn3HW8DWErgAXLe95bQE-33" value="Подбор&amp;nbsp;&lt;div&gt;воркера&lt;/div&gt;" style="text;html=1;align=center;verticalAlign=middle;whiteSpace=wrap;rounded=0;fontSize=18;" vertex="1" parent="kn3HW8DWErgAXLe95bQE-31">
          <mxGeometry y="40" width="220" height="30" as="geometry" />
        </mxCell>
        <mxCell id="kn3HW8DWErgAXLe95bQE-34" value="" style="group" vertex="1" connectable="0" parent="1">
          <mxGeometry x="330" y="90" width="220" height="240" as="geometry" />
        </mxCell>
        <mxCell id="kn3HW8DWErgAXLe95bQE-35" value="" style="rounded=1;whiteSpace=wrap;html=1;fillColor=#dae8fc;strokeColor=#6c8ebf;" vertex="1" parent="kn3HW8DWErgAXLe95bQE-34">
          <mxGeometry x="50" width="120" height="240" as="geometry" />
        </mxCell>
        <mxCell id="kn3HW8DWErgAXLe95bQE-36" value="Оценка&amp;nbsp;&lt;div&gt;стоимости&lt;/div&gt;" style="text;html=1;align=center;verticalAlign=middle;whiteSpace=wrap;rounded=0;fontSize=18;" vertex="1" parent="kn3HW8DWErgAXLe95bQE-34">
          <mxGeometry y="40" width="220" height="30" as="geometry" />
        </mxCell>
        <mxCell id="kn3HW8DWErgAXLe95bQE-23" value="" style="rounded=1;whiteSpace=wrap;html=1;fillColor=#dae8fc;strokeColor=#6c8ebf;" vertex="1" parent="1">
          <mxGeometry x="400" y="380" width="220" height="230" as="geometry" />
        </mxCell>
        <mxCell id="kn3HW8DWErgAXLe95bQE-24" value="" style="group" vertex="1" connectable="0" parent="1">
          <mxGeometry x="560" y="90" width="220" height="230" as="geometry" />
        </mxCell>
        <mxCell id="kn3HW8DWErgAXLe95bQE-19" value="" style="rounded=1;whiteSpace=wrap;html=1;fillColor=#dae8fc;strokeColor=#6c8ebf;" vertex="1" parent="kn3HW8DWErgAXLe95bQE-24">
          <mxGeometry width="220" height="230" as="geometry" />
        </mxCell>
        <mxCell id="kn3HW8DWErgAXLe95bQE-3" value="&lt;font style=&quot;font-size: 18px;&quot;&gt;Контроль качества&lt;/font&gt;" style="rounded=1;whiteSpace=wrap;html=1;" vertex="1" parent="kn3HW8DWErgAXLe95bQE-24">
          <mxGeometry x="50" y="100" width="120" height="110" as="geometry" />
        </mxCell>
        <mxCell id="kn3HW8DWErgAXLe95bQE-20" value="Аналитика" style="text;html=1;align=center;verticalAlign=middle;whiteSpace=wrap;rounded=0;fontSize=18;" vertex="1" parent="kn3HW8DWErgAXLe95bQE-24">
          <mxGeometry y="25" width="220" height="30" as="geometry" />
        </mxCell>
        <mxCell id="kn3HW8DWErgAXLe95bQE-25" value="" style="group" vertex="1" connectable="0" parent="1">
          <mxGeometry x="513" y="801" width="250" height="270" as="geometry" />
        </mxCell>
        <mxCell id="kn3HW8DWErgAXLe95bQE-40" value="" style="rounded=0;whiteSpace=wrap;html=1;fillColor=#d5e8d4;strokeColor=#82b366;" vertex="1" parent="kn3HW8DWErgAXLe95bQE-25">
          <mxGeometry x="-30" y="-40" width="280" height="310" as="geometry" />
        </mxCell>
        <mxCell id="kn3HW8DWErgAXLe95bQE-12" value="" style="rounded=1;whiteSpace=wrap;html=1;fillColor=#dae8fc;strokeColor=#6c8ebf;" vertex="1" parent="kn3HW8DWErgAXLe95bQE-25">
          <mxGeometry width="220" height="230" as="geometry" />
        </mxCell>
        <mxCell id="kn3HW8DWErgAXLe95bQE-6" value="&lt;span style=&quot;font-size: 18px;&quot;&gt;Ставки&lt;/span&gt;" style="rounded=1;whiteSpace=wrap;html=1;" vertex="1" parent="kn3HW8DWErgAXLe95bQE-25">
          <mxGeometry x="50" y="100" width="120" height="110" as="geometry" />
        </mxCell>
        <mxCell id="kn3HW8DWErgAXLe95bQE-21" value="Мотивация сотрудников" style="text;html=1;align=center;verticalAlign=middle;whiteSpace=wrap;rounded=0;fontSize=18;" vertex="1" parent="kn3HW8DWErgAXLe95bQE-25">
          <mxGeometry y="25" width="220" height="30" as="geometry" />
        </mxCell>
        <mxCell id="kn3HW8DWErgAXLe95bQE-26" value="&lt;span style=&quot;font-size: 18px;&quot;&gt;Расходники&lt;/span&gt;" style="rounded=1;whiteSpace=wrap;html=1;" vertex="1" parent="1">
          <mxGeometry x="450" y="480" width="120" height="110" as="geometry" />
        </mxCell>
        <mxCell id="kn3HW8DWErgAXLe95bQE-27" value="Инвентаризация&lt;div&gt;и склад&lt;/div&gt;" style="text;html=1;align=center;verticalAlign=middle;whiteSpace=wrap;rounded=0;fontSize=18;" vertex="1" parent="1">
          <mxGeometry x="400" y="405" width="220" height="30" as="geometry" />
        </mxCell>
        <mxCell id="kn3HW8DWErgAXLe95bQE-28" value="" style="group" vertex="1" connectable="0" parent="1">
          <mxGeometry x="30" y="380" width="310" height="230" as="geometry" />
        </mxCell>
        <mxCell id="kn3HW8DWErgAXLe95bQE-13" value="" style="rounded=1;whiteSpace=wrap;html=1;fillColor=#dae8fc;strokeColor=#6c8ebf;" vertex="1" parent="kn3HW8DWErgAXLe95bQE-28">
          <mxGeometry width="310" height="230" as="geometry" />
        </mxCell>
        <mxCell id="kn3HW8DWErgAXLe95bQE-14" value="&lt;span style=&quot;font-size: 18px;&quot;&gt;Авторизация&lt;/span&gt;" style="rounded=1;whiteSpace=wrap;html=1;" vertex="1" parent="kn3HW8DWErgAXLe95bQE-28">
          <mxGeometry x="170" y="100" width="120" height="110" as="geometry" />
        </mxCell>
        <mxCell id="kn3HW8DWErgAXLe95bQE-15" value="&lt;font style=&quot;font-size: 18px;&quot;&gt;Менеджмент персонала&lt;/font&gt;" style="rounded=1;whiteSpace=wrap;html=1;" vertex="1" parent="kn3HW8DWErgAXLe95bQE-28">
          <mxGeometry x="20" y="100" width="120" height="110" as="geometry" />
        </mxCell>
        <mxCell id="kn3HW8DWErgAXLe95bQE-16" value="Управление аккаунтами" style="text;html=1;align=center;verticalAlign=middle;whiteSpace=wrap;rounded=0;fontSize=18;" vertex="1" parent="kn3HW8DWErgAXLe95bQE-28">
          <mxGeometry x="40" y="30" width="230" height="30" as="geometry" />
        </mxCell>
        <mxCell id="kn3HW8DWErgAXLe95bQE-29" value="" style="group" vertex="1" connectable="0" parent="1">
          <mxGeometry x="98" y="800" width="220" height="230" as="geometry" />
        </mxCell>
        <mxCell id="kn3HW8DWErgAXLe95bQE-17" value="" style="rounded=1;whiteSpace=wrap;html=1;fillColor=#dae8fc;strokeColor=#6c8ebf;" vertex="1" parent="kn3HW8DWErgAXLe95bQE-29">
          <mxGeometry width="220" height="230" as="geometry" />
        </mxCell>
        <mxCell id="kn3HW8DWErgAXLe95bQE-5" value="&lt;span style=&quot;font-size: 18px;&quot;&gt;Бухгалтерия&lt;/span&gt;" style="rounded=1;whiteSpace=wrap;html=1;" vertex="1" parent="kn3HW8DWErgAXLe95bQE-29">
          <mxGeometry x="50" y="100" width="120" height="110" as="geometry" />
        </mxCell>
        <mxCell id="kn3HW8DWErgAXLe95bQE-18" value="Оплата труда" style="text;html=1;align=center;verticalAlign=middle;whiteSpace=wrap;rounded=0;fontSize=18;" vertex="1" parent="kn3HW8DWErgAXLe95bQE-29">
          <mxGeometry y="30" width="220" height="30" as="geometry" />
        </mxCell>
        <mxCell id="kn3HW8DWErgAXLe95bQE-30" value="" style="group" vertex="1" connectable="0" parent="1">
          <mxGeometry y="90" width="465" height="240" as="geometry" />
        </mxCell>
        <mxCell id="kn3HW8DWErgAXLe95bQE-10" value="" style="rounded=1;whiteSpace=wrap;html=1;fillColor=#dae8fc;strokeColor=#6c8ebf;" vertex="1" parent="kn3HW8DWErgAXLe95bQE-30">
          <mxGeometry x="50" width="120" height="240" as="geometry" />
        </mxCell>
        <mxCell id="kn3HW8DWErgAXLe95bQE-22" value="Обработка&amp;nbsp;&lt;div&gt;заявок&lt;/div&gt;" style="text;html=1;align=center;verticalAlign=middle;whiteSpace=wrap;rounded=0;fontSize=18;" vertex="1" parent="kn3HW8DWErgAXLe95bQE-30">
          <mxGeometry y="40" width="220" height="30" as="geometry" />
        </mxCell>
        <mxCell id="kn3HW8DWErgAXLe95bQE-1" value="&lt;font style=&quot;font-size: 18px;&quot;&gt;Жизненный цикл заявки&lt;/font&gt;" style="rounded=1;whiteSpace=wrap;html=1;" vertex="1" parent="kn3HW8DWErgAXLe95bQE-30">
          <mxGeometry x="85" y="100" width="380" height="110" as="geometry" />
        </mxCell>
        <mxCell id="kn3HW8DWErgAXLe95bQE-43" style="edgeStyle=orthogonalEdgeStyle;rounded=0;orthogonalLoop=1;jettySize=auto;html=1;exitX=0.5;exitY=0;exitDx=0;exitDy=0;entryX=0.75;entryY=1;entryDx=0;entryDy=0;" edge="1" parent="1" source="kn3HW8DWErgAXLe95bQE-40" target="kn3HW8DWErgAXLe95bQE-38">
          <mxGeometry relative="1" as="geometry" />
        </mxCell>
        <mxCell id="kn3HW8DWErgAXLe95bQE-44" value="&lt;font style=&quot;font-size: 18px;&quot;&gt;Асинхронно&lt;/font&gt;" style="edgeLabel;html=1;align=center;verticalAlign=middle;resizable=0;points=[];" vertex="1" connectable="0" parent="kn3HW8DWErgAXLe95bQE-43">
          <mxGeometry x="0.0055" y="1" relative="1" as="geometry">
            <mxPoint x="1" as="offset" />
          </mxGeometry>
        </mxCell>
        <mxCell id="kn3HW8DWErgAXLe95bQE-47" value="&lt;font style=&quot;font-size: 25px;&quot;&gt;Итерация 1&lt;/font&gt;" style="text;html=1;align=center;verticalAlign=middle;whiteSpace=wrap;rounded=0;" vertex="1" parent="1">
          <mxGeometry x="310" width="192" height="30" as="geometry" />
        </mxCell>
        <mxCell id="kn3HW8DWErgAXLe95bQE-48" style="edgeStyle=orthogonalEdgeStyle;rounded=0;orthogonalLoop=1;jettySize=auto;html=1;entryX=0.25;entryY=1;entryDx=0;entryDy=0;" edge="1" parent="1" source="kn3HW8DWErgAXLe95bQE-50" target="kn3HW8DWErgAXLe95bQE-51">
          <mxGeometry relative="1" as="geometry" />
        </mxCell>
        <mxCell id="kn3HW8DWErgAXLe95bQE-49" value="&lt;span style=&quot;font-size: 18px;&quot;&gt;Асинхронно&lt;/span&gt;" style="edgeLabel;html=1;align=center;verticalAlign=middle;resizable=0;points=[];" vertex="1" connectable="0" parent="kn3HW8DWErgAXLe95bQE-48">
          <mxGeometry x="-0.0697" relative="1" as="geometry">
            <mxPoint as="offset" />
          </mxGeometry>
        </mxCell>
        <mxCell id="kn3HW8DWErgAXLe95bQE-50" value="" style="rounded=0;whiteSpace=wrap;html=1;fillColor=#d5e8d4;strokeColor=#82b366;" vertex="1" parent="1">
          <mxGeometry x="913" y="760" width="280" height="310" as="geometry" />
        </mxCell>
        <mxCell id="kn3HW8DWErgAXLe95bQE-87" style="edgeStyle=orthogonalEdgeStyle;rounded=0;orthogonalLoop=1;jettySize=auto;html=1;exitX=1;exitY=0.75;exitDx=0;exitDy=0;" edge="1" parent="1" source="kn3HW8DWErgAXLe95bQE-51">
          <mxGeometry relative="1" as="geometry">
            <mxPoint x="1700" y="560" as="targetPoint" />
          </mxGeometry>
        </mxCell>
        <mxCell id="kn3HW8DWErgAXLe95bQE-88" value="&lt;font style=&quot;font-size: 18px;&quot;&gt;синхронно&lt;/font&gt;" style="edgeLabel;html=1;align=center;verticalAlign=middle;resizable=0;points=[];" vertex="1" connectable="0" parent="kn3HW8DWErgAXLe95bQE-87">
          <mxGeometry x="0.0714" relative="1" as="geometry">
            <mxPoint as="offset" />
          </mxGeometry>
        </mxCell>
        <mxCell id="kn3HW8DWErgAXLe95bQE-51" value="" style="rounded=0;whiteSpace=wrap;html=1;fillColor=#d5e8d4;strokeColor=#82b366;" vertex="1" parent="1">
          <mxGeometry x="910" y="40" width="570" height="630" as="geometry" />
        </mxCell>
        <mxCell id="kn3HW8DWErgAXLe95bQE-52" value="" style="group" vertex="1" connectable="0" parent="1">
          <mxGeometry x="1075" y="90" width="315" height="240" as="geometry" />
        </mxCell>
        <mxCell id="kn3HW8DWErgAXLe95bQE-53" value="" style="rounded=1;whiteSpace=wrap;html=1;fillColor=#dae8fc;strokeColor=#6c8ebf;" vertex="1" parent="kn3HW8DWErgAXLe95bQE-52">
          <mxGeometry x="50" width="120" height="240" as="geometry" />
        </mxCell>
        <mxCell id="kn3HW8DWErgAXLe95bQE-54" value="Подбор&amp;nbsp;&lt;div&gt;воркера&lt;/div&gt;" style="text;html=1;align=center;verticalAlign=middle;whiteSpace=wrap;rounded=0;fontSize=18;" vertex="1" parent="kn3HW8DWErgAXLe95bQE-52">
          <mxGeometry y="40" width="220" height="30" as="geometry" />
        </mxCell>
        <mxCell id="kn3HW8DWErgAXLe95bQE-55" value="" style="group" vertex="1" connectable="0" parent="1">
          <mxGeometry x="1240" y="90" width="220" height="240" as="geometry" />
        </mxCell>
        <mxCell id="kn3HW8DWErgAXLe95bQE-56" value="" style="rounded=1;whiteSpace=wrap;html=1;fillColor=#dae8fc;strokeColor=#6c8ebf;" vertex="1" parent="kn3HW8DWErgAXLe95bQE-55">
          <mxGeometry x="50" width="120" height="240" as="geometry" />
        </mxCell>
        <mxCell id="kn3HW8DWErgAXLe95bQE-57" value="Оценка&amp;nbsp;&lt;div&gt;стоимости&lt;/div&gt;" style="text;html=1;align=center;verticalAlign=middle;whiteSpace=wrap;rounded=0;fontSize=18;" vertex="1" parent="kn3HW8DWErgAXLe95bQE-55">
          <mxGeometry y="40" width="220" height="30" as="geometry" />
        </mxCell>
        <mxCell id="kn3HW8DWErgAXLe95bQE-58" value="" style="rounded=1;whiteSpace=wrap;html=1;fillColor=#dae8fc;strokeColor=#6c8ebf;" vertex="1" parent="1">
          <mxGeometry x="1075" y="370" width="220" height="230" as="geometry" />
        </mxCell>
        <mxCell id="kn3HW8DWErgAXLe95bQE-59" value="" style="group" vertex="1" connectable="0" parent="1">
          <mxGeometry x="1700" y="90" width="250" height="270" as="geometry" />
        </mxCell>
        <mxCell id="kn3HW8DWErgAXLe95bQE-133" value="" style="rounded=0;whiteSpace=wrap;html=1;fillColor=#d5e8d4;strokeColor=#82b366;" vertex="1" parent="kn3HW8DWErgAXLe95bQE-59">
          <mxGeometry x="-30" y="-40" width="280" height="310" as="geometry" />
        </mxCell>
        <mxCell id="kn3HW8DWErgAXLe95bQE-60" value="" style="rounded=1;whiteSpace=wrap;html=1;fillColor=#dae8fc;strokeColor=#6c8ebf;" vertex="1" parent="kn3HW8DWErgAXLe95bQE-59">
          <mxGeometry width="220" height="230" as="geometry" />
        </mxCell>
        <mxCell id="kn3HW8DWErgAXLe95bQE-61" value="&lt;font style=&quot;font-size: 18px;&quot;&gt;Контроль качества&lt;/font&gt;" style="rounded=1;whiteSpace=wrap;html=1;" vertex="1" parent="kn3HW8DWErgAXLe95bQE-59">
          <mxGeometry x="50" y="100" width="120" height="110" as="geometry" />
        </mxCell>
        <mxCell id="kn3HW8DWErgAXLe95bQE-62" value="Аналитика" style="text;html=1;align=center;verticalAlign=middle;whiteSpace=wrap;rounded=0;fontSize=18;" vertex="1" parent="kn3HW8DWErgAXLe95bQE-59">
          <mxGeometry y="25" width="220" height="30" as="geometry" />
        </mxCell>
        <mxCell id="kn3HW8DWErgAXLe95bQE-63" value="" style="group" vertex="1" connectable="0" parent="1">
          <mxGeometry x="1350" y="801" width="250" height="270" as="geometry" />
        </mxCell>
        <mxCell id="kn3HW8DWErgAXLe95bQE-64" value="" style="rounded=0;whiteSpace=wrap;html=1;fillColor=#d5e8d4;strokeColor=#82b366;" vertex="1" parent="kn3HW8DWErgAXLe95bQE-63">
          <mxGeometry x="-31" y="-40" width="280" height="310" as="geometry" />
        </mxCell>
        <mxCell id="kn3HW8DWErgAXLe95bQE-65" value="" style="rounded=1;whiteSpace=wrap;html=1;fillColor=#dae8fc;strokeColor=#6c8ebf;" vertex="1" parent="kn3HW8DWErgAXLe95bQE-63">
          <mxGeometry width="220" height="230" as="geometry" />
        </mxCell>
        <mxCell id="kn3HW8DWErgAXLe95bQE-66" value="&lt;span style=&quot;font-size: 18px;&quot;&gt;Ставки&lt;/span&gt;" style="rounded=1;whiteSpace=wrap;html=1;" vertex="1" parent="kn3HW8DWErgAXLe95bQE-63">
          <mxGeometry x="50" y="100" width="120" height="110" as="geometry" />
        </mxCell>
        <mxCell id="kn3HW8DWErgAXLe95bQE-67" value="Мотивация сотрудников" style="text;html=1;align=center;verticalAlign=middle;whiteSpace=wrap;rounded=0;fontSize=18;" vertex="1" parent="kn3HW8DWErgAXLe95bQE-63">
          <mxGeometry y="25" width="220" height="30" as="geometry" />
        </mxCell>
        <mxCell id="kn3HW8DWErgAXLe95bQE-68" value="&lt;span style=&quot;font-size: 18px;&quot;&gt;Расходники&lt;/span&gt;" style="rounded=1;whiteSpace=wrap;html=1;" vertex="1" parent="1">
          <mxGeometry x="1125" y="470" width="120" height="110" as="geometry" />
        </mxCell>
        <mxCell id="kn3HW8DWErgAXLe95bQE-69" value="Инвентаризация&lt;div&gt;и склад&lt;/div&gt;" style="text;html=1;align=center;verticalAlign=middle;whiteSpace=wrap;rounded=0;fontSize=18;" vertex="1" parent="1">
          <mxGeometry x="1075" y="395" width="220" height="30" as="geometry" />
        </mxCell>
        <mxCell id="kn3HW8DWErgAXLe95bQE-70" value="" style="group" vertex="1" connectable="0" parent="1">
          <mxGeometry x="1700" y="450" width="330" height="270" as="geometry" />
        </mxCell>
        <mxCell id="kn3HW8DWErgAXLe95bQE-134" value="" style="rounded=0;whiteSpace=wrap;html=1;fillColor=#d5e8d4;strokeColor=#82b366;" vertex="1" parent="kn3HW8DWErgAXLe95bQE-70">
          <mxGeometry x="-20" y="-40" width="350" height="310" as="geometry" />
        </mxCell>
        <mxCell id="kn3HW8DWErgAXLe95bQE-71" value="" style="rounded=1;whiteSpace=wrap;html=1;fillColor=#dae8fc;strokeColor=#6c8ebf;" vertex="1" parent="kn3HW8DWErgAXLe95bQE-70">
          <mxGeometry width="310" height="230" as="geometry" />
        </mxCell>
        <mxCell id="kn3HW8DWErgAXLe95bQE-72" value="&lt;span style=&quot;font-size: 18px;&quot;&gt;Авторизация&lt;/span&gt;" style="rounded=1;whiteSpace=wrap;html=1;" vertex="1" parent="kn3HW8DWErgAXLe95bQE-70">
          <mxGeometry x="170" y="100" width="120" height="110" as="geometry" />
        </mxCell>
        <mxCell id="kn3HW8DWErgAXLe95bQE-73" value="&lt;font style=&quot;font-size: 18px;&quot;&gt;Менеджмент персонала&lt;/font&gt;" style="rounded=1;whiteSpace=wrap;html=1;" vertex="1" parent="kn3HW8DWErgAXLe95bQE-70">
          <mxGeometry x="20" y="100" width="120" height="110" as="geometry" />
        </mxCell>
        <mxCell id="kn3HW8DWErgAXLe95bQE-74" value="Управление аккаунтами" style="text;html=1;align=center;verticalAlign=middle;whiteSpace=wrap;rounded=0;fontSize=18;" vertex="1" parent="kn3HW8DWErgAXLe95bQE-70">
          <mxGeometry x="40" y="30" width="230" height="30" as="geometry" />
        </mxCell>
        <mxCell id="kn3HW8DWErgAXLe95bQE-75" value="" style="group" vertex="1" connectable="0" parent="1">
          <mxGeometry x="943" y="800" width="220" height="230" as="geometry" />
        </mxCell>
        <mxCell id="kn3HW8DWErgAXLe95bQE-76" value="" style="rounded=1;whiteSpace=wrap;html=1;fillColor=#dae8fc;strokeColor=#6c8ebf;" vertex="1" parent="kn3HW8DWErgAXLe95bQE-75">
          <mxGeometry width="220" height="230" as="geometry" />
        </mxCell>
        <mxCell id="kn3HW8DWErgAXLe95bQE-77" value="&lt;span style=&quot;font-size: 18px;&quot;&gt;Бухгалтерия&lt;/span&gt;" style="rounded=1;whiteSpace=wrap;html=1;" vertex="1" parent="kn3HW8DWErgAXLe95bQE-75">
          <mxGeometry x="50" y="100" width="120" height="110" as="geometry" />
        </mxCell>
        <mxCell id="kn3HW8DWErgAXLe95bQE-78" value="Оплата труда" style="text;html=1;align=center;verticalAlign=middle;whiteSpace=wrap;rounded=0;fontSize=18;" vertex="1" parent="kn3HW8DWErgAXLe95bQE-75">
          <mxGeometry y="30" width="220" height="30" as="geometry" />
        </mxCell>
        <mxCell id="kn3HW8DWErgAXLe95bQE-79" value="" style="group" vertex="1" connectable="0" parent="1">
          <mxGeometry x="910" y="90" width="465" height="240" as="geometry" />
        </mxCell>
        <mxCell id="kn3HW8DWErgAXLe95bQE-80" value="" style="rounded=1;whiteSpace=wrap;html=1;fillColor=#dae8fc;strokeColor=#6c8ebf;" vertex="1" parent="kn3HW8DWErgAXLe95bQE-79">
          <mxGeometry x="50" width="120" height="240" as="geometry" />
        </mxCell>
        <mxCell id="kn3HW8DWErgAXLe95bQE-81" value="Обработка&amp;nbsp;&lt;div&gt;заявок&lt;/div&gt;" style="text;html=1;align=center;verticalAlign=middle;whiteSpace=wrap;rounded=0;fontSize=18;" vertex="1" parent="kn3HW8DWErgAXLe95bQE-79">
          <mxGeometry y="40" width="220" height="30" as="geometry" />
        </mxCell>
        <mxCell id="kn3HW8DWErgAXLe95bQE-82" value="&lt;font style=&quot;font-size: 18px;&quot;&gt;Жизненный цикл заявки&lt;/font&gt;" style="rounded=1;whiteSpace=wrap;html=1;" vertex="1" parent="kn3HW8DWErgAXLe95bQE-79">
          <mxGeometry x="85" y="100" width="380" height="110" as="geometry" />
        </mxCell>
        <mxCell id="kn3HW8DWErgAXLe95bQE-83" style="edgeStyle=orthogonalEdgeStyle;rounded=0;orthogonalLoop=1;jettySize=auto;html=1;exitX=0.5;exitY=0;exitDx=0;exitDy=0;entryX=0.75;entryY=1;entryDx=0;entryDy=0;" edge="1" parent="1" source="kn3HW8DWErgAXLe95bQE-64" target="kn3HW8DWErgAXLe95bQE-51">
          <mxGeometry relative="1" as="geometry" />
        </mxCell>
        <mxCell id="kn3HW8DWErgAXLe95bQE-84" value="&lt;font style=&quot;font-size: 18px;&quot;&gt;Асинхронно&lt;/font&gt;" style="edgeLabel;html=1;align=center;verticalAlign=middle;resizable=0;points=[];" vertex="1" connectable="0" parent="kn3HW8DWErgAXLe95bQE-83">
          <mxGeometry x="0.0055" y="1" relative="1" as="geometry">
            <mxPoint x="1" as="offset" />
          </mxGeometry>
        </mxCell>
        <mxCell id="kn3HW8DWErgAXLe95bQE-85" value="&lt;font style=&quot;font-size: 25px;&quot;&gt;Итерация 2&lt;/font&gt;" style="text;html=1;align=center;verticalAlign=middle;whiteSpace=wrap;rounded=0;" vertex="1" parent="1">
          <mxGeometry x="1220" width="192" height="30" as="geometry" />
        </mxCell>
        <mxCell id="kn3HW8DWErgAXLe95bQE-89" style="edgeStyle=orthogonalEdgeStyle;rounded=0;orthogonalLoop=1;jettySize=auto;html=1;" edge="1" parent="1" source="kn3HW8DWErgAXLe95bQE-60" target="kn3HW8DWErgAXLe95bQE-51">
          <mxGeometry relative="1" as="geometry" />
        </mxCell>
        <mxCell id="kn3HW8DWErgAXLe95bQE-90" value="&lt;font style=&quot;font-size: 18px;&quot;&gt;Асинхронно&lt;/font&gt;" style="edgeLabel;html=1;align=center;verticalAlign=middle;resizable=0;points=[];" vertex="1" connectable="0" parent="kn3HW8DWErgAXLe95bQE-89">
          <mxGeometry x="0.2153" y="-1" relative="1" as="geometry">
            <mxPoint as="offset" />
          </mxGeometry>
        </mxCell>
        <mxCell id="kn3HW8DWErgAXLe95bQE-91" style="edgeStyle=orthogonalEdgeStyle;rounded=0;orthogonalLoop=1;jettySize=auto;html=1;entryX=0.25;entryY=1;entryDx=0;entryDy=0;" edge="1" parent="1" source="kn3HW8DWErgAXLe95bQE-93" target="kn3HW8DWErgAXLe95bQE-148">
          <mxGeometry relative="1" as="geometry">
            <mxPoint x="2252.5" y="680" as="targetPoint" />
          </mxGeometry>
        </mxCell>
        <mxCell id="kn3HW8DWErgAXLe95bQE-92" value="&lt;span style=&quot;font-size: 18px;&quot;&gt;Асинхронно&lt;/span&gt;" style="edgeLabel;html=1;align=center;verticalAlign=middle;resizable=0;points=[];" vertex="1" connectable="0" parent="kn3HW8DWErgAXLe95bQE-91">
          <mxGeometry x="-0.0697" relative="1" as="geometry">
            <mxPoint as="offset" />
          </mxGeometry>
        </mxCell>
        <mxCell id="kn3HW8DWErgAXLe95bQE-93" value="" style="rounded=0;whiteSpace=wrap;html=1;fillColor=#d5e8d4;strokeColor=#82b366;" vertex="1" parent="1">
          <mxGeometry x="2113" y="770" width="280" height="310" as="geometry" />
        </mxCell>
        <mxCell id="kn3HW8DWErgAXLe95bQE-103" value="" style="rounded=1;whiteSpace=wrap;html=1;fillColor=#dae8fc;strokeColor=#6c8ebf;" vertex="1" parent="1">
          <mxGeometry x="2860" y="440" width="220" height="230" as="geometry" />
        </mxCell>
        <mxCell id="kn3HW8DWErgAXLe95bQE-104" value="" style="group" vertex="1" connectable="0" parent="1">
          <mxGeometry x="2920" y="820" width="330" height="260" as="geometry" />
        </mxCell>
        <mxCell id="kn3HW8DWErgAXLe95bQE-137" value="" style="rounded=0;whiteSpace=wrap;html=1;fillColor=#d5e8d4;strokeColor=#82b366;" vertex="1" parent="kn3HW8DWErgAXLe95bQE-104">
          <mxGeometry x="-40" y="-50" width="300" height="310" as="geometry" />
        </mxCell>
        <mxCell id="kn3HW8DWErgAXLe95bQE-105" value="" style="rounded=1;whiteSpace=wrap;html=1;fillColor=#dae8fc;strokeColor=#6c8ebf;" vertex="1" parent="kn3HW8DWErgAXLe95bQE-104">
          <mxGeometry width="220" height="230" as="geometry" />
        </mxCell>
        <mxCell id="kn3HW8DWErgAXLe95bQE-106" value="&lt;font style=&quot;font-size: 18px;&quot;&gt;Контроль качества&lt;/font&gt;" style="rounded=1;whiteSpace=wrap;html=1;" vertex="1" parent="kn3HW8DWErgAXLe95bQE-104">
          <mxGeometry x="50" y="100" width="120" height="110" as="geometry" />
        </mxCell>
        <mxCell id="kn3HW8DWErgAXLe95bQE-107" value="Аналитика" style="text;html=1;align=center;verticalAlign=middle;whiteSpace=wrap;rounded=0;fontSize=18;" vertex="1" parent="kn3HW8DWErgAXLe95bQE-104">
          <mxGeometry y="25" width="220" height="30" as="geometry" />
        </mxCell>
        <mxCell id="kn3HW8DWErgAXLe95bQE-108" value="" style="group" vertex="1" connectable="0" parent="1">
          <mxGeometry x="2550" y="811" width="250" height="270" as="geometry" />
        </mxCell>
        <mxCell id="kn3HW8DWErgAXLe95bQE-109" value="" style="rounded=0;whiteSpace=wrap;html=1;fillColor=#d5e8d4;strokeColor=#82b366;" vertex="1" parent="kn3HW8DWErgAXLe95bQE-108">
          <mxGeometry x="-31" y="-40" width="280" height="310" as="geometry" />
        </mxCell>
        <mxCell id="kn3HW8DWErgAXLe95bQE-110" value="" style="rounded=1;whiteSpace=wrap;html=1;fillColor=#dae8fc;strokeColor=#6c8ebf;" vertex="1" parent="kn3HW8DWErgAXLe95bQE-108">
          <mxGeometry width="220" height="230" as="geometry" />
        </mxCell>
        <mxCell id="kn3HW8DWErgAXLe95bQE-111" value="&lt;span style=&quot;font-size: 18px;&quot;&gt;Ставки&lt;/span&gt;" style="rounded=1;whiteSpace=wrap;html=1;" vertex="1" parent="kn3HW8DWErgAXLe95bQE-108">
          <mxGeometry x="50" y="100" width="120" height="110" as="geometry" />
        </mxCell>
        <mxCell id="kn3HW8DWErgAXLe95bQE-112" value="Мотивация сотрудников" style="text;html=1;align=center;verticalAlign=middle;whiteSpace=wrap;rounded=0;fontSize=18;" vertex="1" parent="kn3HW8DWErgAXLe95bQE-108">
          <mxGeometry y="25" width="220" height="30" as="geometry" />
        </mxCell>
        <mxCell id="kn3HW8DWErgAXLe95bQE-113" value="&lt;span style=&quot;font-size: 18px;&quot;&gt;Расходники&lt;/span&gt;" style="rounded=1;whiteSpace=wrap;html=1;" vertex="1" parent="1">
          <mxGeometry x="2910" y="540" width="120" height="110" as="geometry" />
        </mxCell>
        <mxCell id="kn3HW8DWErgAXLe95bQE-114" value="Инвентаризация&lt;div&gt;и склад&lt;/div&gt;" style="text;html=1;align=center;verticalAlign=middle;whiteSpace=wrap;rounded=0;fontSize=18;" vertex="1" parent="1">
          <mxGeometry x="2860" y="465" width="220" height="30" as="geometry" />
        </mxCell>
        <mxCell id="kn3HW8DWErgAXLe95bQE-115" value="" style="group" vertex="1" connectable="0" parent="1">
          <mxGeometry x="2780" y="99" width="330" height="270" as="geometry" />
        </mxCell>
        <mxCell id="kn3HW8DWErgAXLe95bQE-136" value="" style="rounded=0;whiteSpace=wrap;html=1;fillColor=#d5e8d4;strokeColor=#82b366;" vertex="1" parent="kn3HW8DWErgAXLe95bQE-115">
          <mxGeometry x="-40" y="-40" width="370" height="310" as="geometry" />
        </mxCell>
        <mxCell id="kn3HW8DWErgAXLe95bQE-116" value="" style="rounded=1;whiteSpace=wrap;html=1;fillColor=#dae8fc;strokeColor=#6c8ebf;" vertex="1" parent="kn3HW8DWErgAXLe95bQE-115">
          <mxGeometry width="310" height="230" as="geometry" />
        </mxCell>
        <mxCell id="kn3HW8DWErgAXLe95bQE-117" value="&lt;span style=&quot;font-size: 18px;&quot;&gt;Авторизация&lt;/span&gt;" style="rounded=1;whiteSpace=wrap;html=1;" vertex="1" parent="kn3HW8DWErgAXLe95bQE-115">
          <mxGeometry x="170" y="100" width="120" height="110" as="geometry" />
        </mxCell>
        <mxCell id="kn3HW8DWErgAXLe95bQE-118" value="&lt;font style=&quot;font-size: 18px;&quot;&gt;Менеджмент персонала&lt;/font&gt;" style="rounded=1;whiteSpace=wrap;html=1;" vertex="1" parent="kn3HW8DWErgAXLe95bQE-115">
          <mxGeometry x="20" y="100" width="120" height="110" as="geometry" />
        </mxCell>
        <mxCell id="kn3HW8DWErgAXLe95bQE-119" value="Управление аккаунтами" style="text;html=1;align=center;verticalAlign=middle;whiteSpace=wrap;rounded=0;fontSize=18;" vertex="1" parent="kn3HW8DWErgAXLe95bQE-115">
          <mxGeometry x="40" y="30" width="230" height="30" as="geometry" />
        </mxCell>
        <mxCell id="kn3HW8DWErgAXLe95bQE-120" value="" style="group" vertex="1" connectable="0" parent="1">
          <mxGeometry x="2143" y="810" width="220" height="230" as="geometry" />
        </mxCell>
        <mxCell id="kn3HW8DWErgAXLe95bQE-121" value="" style="rounded=1;whiteSpace=wrap;html=1;fillColor=#dae8fc;strokeColor=#6c8ebf;" vertex="1" parent="kn3HW8DWErgAXLe95bQE-120">
          <mxGeometry width="220" height="230" as="geometry" />
        </mxCell>
        <mxCell id="kn3HW8DWErgAXLe95bQE-122" value="&lt;span style=&quot;font-size: 18px;&quot;&gt;Бухгалтерия&lt;/span&gt;" style="rounded=1;whiteSpace=wrap;html=1;" vertex="1" parent="kn3HW8DWErgAXLe95bQE-120">
          <mxGeometry x="50" y="100" width="120" height="110" as="geometry" />
        </mxCell>
        <mxCell id="kn3HW8DWErgAXLe95bQE-123" value="Оплата труда" style="text;html=1;align=center;verticalAlign=middle;whiteSpace=wrap;rounded=0;fontSize=18;" vertex="1" parent="kn3HW8DWErgAXLe95bQE-120">
          <mxGeometry y="30" width="220" height="30" as="geometry" />
        </mxCell>
        <mxCell id="kn3HW8DWErgAXLe95bQE-128" style="edgeStyle=orthogonalEdgeStyle;rounded=0;orthogonalLoop=1;jettySize=auto;html=1;exitX=0.5;exitY=0;exitDx=0;exitDy=0;entryX=0.75;entryY=1;entryDx=0;entryDy=0;" edge="1" parent="1" source="kn3HW8DWErgAXLe95bQE-109" target="kn3HW8DWErgAXLe95bQE-148">
          <mxGeometry relative="1" as="geometry">
            <mxPoint x="2537.5" y="680" as="targetPoint" />
          </mxGeometry>
        </mxCell>
        <mxCell id="kn3HW8DWErgAXLe95bQE-129" value="&lt;font style=&quot;font-size: 18px;&quot;&gt;Асинхронно&lt;/font&gt;" style="edgeLabel;html=1;align=center;verticalAlign=middle;resizable=0;points=[];" vertex="1" connectable="0" parent="kn3HW8DWErgAXLe95bQE-128">
          <mxGeometry x="0.0055" y="1" relative="1" as="geometry">
            <mxPoint x="1" as="offset" />
          </mxGeometry>
        </mxCell>
        <mxCell id="kn3HW8DWErgAXLe95bQE-130" value="&lt;font style=&quot;font-size: 25px;&quot;&gt;Итерация 3&lt;/font&gt;" style="text;html=1;align=center;verticalAlign=middle;whiteSpace=wrap;rounded=0;" vertex="1" parent="1">
          <mxGeometry x="2420" y="10" width="192" height="30" as="geometry" />
        </mxCell>
        <mxCell id="kn3HW8DWErgAXLe95bQE-149" style="edgeStyle=orthogonalEdgeStyle;rounded=0;orthogonalLoop=1;jettySize=auto;html=1;exitX=1;exitY=0.5;exitDx=0;exitDy=0;entryX=0.004;entryY=0.442;entryDx=0;entryDy=0;entryPerimeter=0;" edge="1" parent="1" source="kn3HW8DWErgAXLe95bQE-147" target="kn3HW8DWErgAXLe95bQE-136">
          <mxGeometry relative="1" as="geometry" />
        </mxCell>
        <mxCell id="kn3HW8DWErgAXLe95bQE-150" value="&lt;span style=&quot;font-size: 18px;&quot;&gt;Синхронно&lt;/span&gt;" style="edgeLabel;html=1;align=center;verticalAlign=middle;resizable=0;points=[];" vertex="1" connectable="0" parent="kn3HW8DWErgAXLe95bQE-149">
          <mxGeometry x="0.1907" y="4" relative="1" as="geometry">
            <mxPoint as="offset" />
          </mxGeometry>
        </mxCell>
        <mxCell id="kn3HW8DWErgAXLe95bQE-147" value="" style="rounded=0;whiteSpace=wrap;html=1;fillColor=#d5e8d4;strokeColor=#82b366;" vertex="1" parent="1">
          <mxGeometry x="2270" y="62" width="280" height="270" as="geometry" />
        </mxCell>
        <mxCell id="kn3HW8DWErgAXLe95bQE-98" value="" style="rounded=1;whiteSpace=wrap;html=1;fillColor=#dae8fc;strokeColor=#6c8ebf;" vertex="1" parent="1">
          <mxGeometry x="2330" y="77" width="160" height="240" as="geometry" />
        </mxCell>
        <mxCell id="kn3HW8DWErgAXLe95bQE-99" value="Подбор&amp;nbsp;&lt;div&gt;воркера&lt;/div&gt;" style="text;html=1;align=center;verticalAlign=middle;whiteSpace=wrap;rounded=0;fontSize=18;" vertex="1" parent="1">
          <mxGeometry x="2300" y="112" width="220" height="30" as="geometry" />
        </mxCell>
        <mxCell id="kn3HW8DWErgAXLe95bQE-146" value="&lt;font style=&quot;font-size: 18px;&quot;&gt;Мэтчинг&lt;/font&gt;" style="rounded=1;whiteSpace=wrap;html=1;" vertex="1" parent="1">
          <mxGeometry x="2350" y="192" width="120" height="110" as="geometry" />
        </mxCell>
        <mxCell id="kn3HW8DWErgAXLe95bQE-157" style="edgeStyle=orthogonalEdgeStyle;rounded=0;orthogonalLoop=1;jettySize=auto;html=1;entryX=1;entryY=0.75;entryDx=0;entryDy=0;" edge="1" parent="1" source="kn3HW8DWErgAXLe95bQE-137" target="kn3HW8DWErgAXLe95bQE-148">
          <mxGeometry relative="1" as="geometry">
            <Array as="points">
              <mxPoint x="2820" y="925" />
              <mxPoint x="2820" y="623" />
            </Array>
          </mxGeometry>
        </mxCell>
        <mxCell id="kn3HW8DWErgAXLe95bQE-158" value="&lt;span style=&quot;font-size: 18px;&quot;&gt;Синхронно&lt;/span&gt;" style="edgeLabel;html=1;align=center;verticalAlign=middle;resizable=0;points=[];" vertex="1" connectable="0" parent="kn3HW8DWErgAXLe95bQE-157">
          <mxGeometry x="-0.1677" relative="1" as="geometry">
            <mxPoint as="offset" />
          </mxGeometry>
        </mxCell>
      </root>
    </mxGraphModel>
  </diagram>
</mxfile>
